<svg xmlns="http://www.w3.org/2000/svg" width="454" height="168" viewBox="0 0 454 168" version="1.1"><path d="M 294 18.993 L 283.500 23.658 283.231 44.691 L 282.961 65.724 277.436 66.294 C 269.626 67.101, 263.524 70.394, 255.837 77.950 C 250.438 83.258, 248.874 85.530, 247.587 89.932 C 246.714 92.919, 245.993 96.744, 245.985 98.432 C 245.973 100.816, 245.746 101.166, 244.966 100 C 244.088 98.687, 243.838 98.712, 242.962 100.197 C 239.412 106.211, 230.324 112.680, 226.623 111.828 C 225.718 111.620, 230.452 105.297, 239.595 94.500 L 253.992 77.500 251.246 75.233 C 247.552 72.184, 236.970 68.994, 230.645 69.024 C 220.976 69.070, 209.686 73.115, 203.916 78.600 L 201.331 81.057 191.721 79.510 L 182.110 77.964 171.305 83.941 L 160.500 89.918 159.804 87.209 C 159.421 85.719, 158.366 72.125, 157.461 57 C 156.555 41.875, 155.652 29.334, 155.454 29.130 C 155.256 28.927, 149.050 31.320, 141.664 34.449 L 128.234 40.137 127.569 44.319 C 127.203 46.618, 126.649 49.526, 126.336 50.780 C 125.799 52.937, 125.982 53.026, 129.727 52.428 L 133.686 51.795 134.343 61.051 C 134.704 66.142, 134.998 72.601, 134.996 75.404 L 134.993 80.500 133.139 77.500 C 128.811 70.492, 120.769 66.628, 110.423 66.585 C 104.428 66.560, 102.338 67.051, 96.764 69.795 C 88.075 74.073, 79.675 82.986, 77.532 90.204 C 74.436 100.630, 76.839 114.751, 82.969 122.160 C 91.296 132.224, 107.426 132.995, 120.561 123.958 C 125.913 120.276, 133.676 110.751, 134.543 106.802 C 136.006 100.144, 136.803 104.251, 137.447 121.766 C 137.825 132.070, 138.360 141.287, 138.635 142.250 C 139.077 143.797, 140.588 144, 151.658 144 L 164.181 144 163.449 130.760 C 162.828 119.525, 162.928 117.682, 164.108 118.592 C 168.515 121.988, 203.759 147, 204.138 147 C 204.388 147, 204.407 142.753, 204.180 137.563 L 203.767 128.126 208.633 129.645 C 212.171 130.749, 215.958 131.015, 222.500 130.621 C 232.629 130.009, 238.779 128.353, 246.546 124.146 L 251.865 121.265 255.107 124.610 C 259.422 129.063, 266.636 131.409, 273.888 130.719 C 276.975 130.426, 280.288 129.871, 281.250 129.486 C 282.516 128.980, 283 129.269, 283 130.532 C 283 132.052, 283.680 132.197, 288.250 131.648 C 291.137 131.301, 296.538 131.013, 300.250 131.009 L 307 131 307 127.530 L 307 124.060 310.489 126.428 C 315.689 129.957, 323.021 131.373, 332.407 130.661 C 345.645 129.657, 357.079 125.091, 362.870 118.495 L 366.060 114.862 362.280 110.118 C 353.415 98.995, 352.871 98.479, 351.879 100.251 C 348.637 106.045, 339.321 112.679, 335.623 111.828 C 334.718 111.620, 339.452 105.297, 348.595 94.500 L 362.992 77.500 360.246 75.233 C 356.552 72.184, 345.970 68.994, 339.645 69.024 C 328.710 69.076, 317.447 73.622, 311.046 80.566 C 307.458 84.459, 307.130 84.611, 306.600 82.634 C 306.285 81.460, 305.977 69.250, 305.914 55.500 C 305.852 41.750, 305.509 26.862, 305.151 22.415 L 304.500 14.329 294 18.993 M 44 34.935 C 30.132 38.021, 14.454 43.477, 14.807 45.094 C 15.200 46.897, 22.207 66.363, 22.664 66.921 C 22.853 67.152, 24.129 66.288, 25.500 65 C 26.871 63.712, 28.199 62.866, 28.452 63.119 C 28.706 63.372, 33.840 77.737, 39.863 95.040 C 45.885 112.343, 51.308 127.774, 51.912 129.331 L 53.012 132.162 58.256 128.417 C 67.756 121.633, 67.427 123.709, 61.971 105 L 57.159 88.500 62.685 83.550 C 69.928 77.061, 81.446 63.026, 84.543 56.915 C 85.894 54.248, 87 50.769, 87 49.183 C 87 45.179, 81.878 38.498, 76.763 35.831 C 70.787 32.715, 55.814 32.305, 44 34.935 M 216.164 39.914 C 209.379 43.686, 203.367 47.233, 202.804 47.796 C 202.105 48.495, 202.755 50.237, 204.847 53.277 L 207.913 57.734 220.207 55.365 C 226.968 54.061, 234.463 52.659, 236.862 52.248 C 239.261 51.836, 241.286 51.135, 241.362 50.689 C 241.585 49.377, 230.595 33.027, 229.500 33.041 C 228.950 33.049, 222.949 36.141, 216.164 39.914 M 53.203 56.131 C 51.390 56.654, 49.663 57.714, 49.366 58.487 C 48.917 59.658, 50.575 67.092, 52.593 72.954 C 52.948 73.986, 54.233 73.114, 57.013 69.954 C 63.280 62.832, 66.279 58.170, 65.649 56.527 C 64.978 54.779, 58.597 54.576, 53.203 56.131 M 353 62.328 C 353 62.671, 359.525 71.398, 367.500 81.723 C 375.475 92.047, 382 100.779, 382 101.127 C 382 101.610, 362.927 127.010, 356.752 134.750 C 355.964 135.738, 358.667 136, 369.640 136 L 383.524 136 389.512 128.018 C 392.805 123.628, 395.817 120.028, 396.205 120.018 C 396.593 120.008, 399.651 123.600, 403 128 L 409.090 136 422.545 136 C 429.945 136, 436 135.744, 436 135.430 C 436 135.117, 433.075 131.067, 429.500 126.430 C 425.925 121.794, 420.080 114.213, 416.511 109.584 L 410.022 101.167 424.940 81.845 C 433.144 71.218, 439.730 62.396, 439.574 62.241 C 439.418 62.085, 432.880 62.264, 425.045 62.638 L 410.799 63.318 403.778 72.659 C 399.916 77.796, 396.474 81.986, 396.128 81.968 C 395.783 81.951, 392.369 77.676, 388.543 72.468 L 381.585 63 375.543 62.994 C 372.219 62.991, 365.788 62.699, 361.250 62.346 C 356.712 61.993, 353 61.984, 353 62.328 M 107.970 78.250 C 99.737 82.409, 96.205 92.106, 101.250 96.701 C 109.280 104.015, 118.625 101.786, 122.503 91.630 C 123.409 89.258, 124.003 85.784, 123.823 83.909 L 123.495 80.500 121.731 83.733 C 119.810 87.252, 114.675 90.473, 112.386 89.595 C 108.571 88.131, 109.172 80.394, 113.326 77.484 C 116.676 75.138, 113.126 75.645, 107.970 78.250 M 276.241 78.995 C 269.898 82.862, 267.004 91.706, 270.465 96.647 C 272.168 99.078, 277.864 102, 280.901 102 C 282.779 102, 283 101.420, 283 96.500 C 283 92.333, 282.515 90.515, 281 89 C 278.607 86.607, 278.412 82.285, 280.557 79.223 C 282.578 76.337, 280.757 76.241, 276.241 78.995 M 216.933 87.266 C 212.502 90.253, 210.539 95.454, 211.485 101.708 L 212.209 106.500 215.854 102.393 C 217.859 100.134, 221.631 95.567, 224.236 92.244 C 228.038 87.396, 228.663 86.085, 227.405 85.602 C 224.280 84.403, 220.226 85.047, 216.933 87.266 M 325.933 87.266 C 321.502 90.253, 319.539 95.454, 320.485 101.708 L 321.209 106.500 324.854 102.393 C 326.859 100.134, 330.631 95.567, 333.236 92.244 C 337.038 87.396, 337.663 86.085, 336.405 85.602 C 333.280 84.403, 329.226 85.047, 325.933 87.266 M 185.757 96.431 L 175.013 104.766 184.257 111.690 C 196.515 120.873, 195.999 120.665, 194.273 115.733 C 192.492 110.647, 193.055 98.676, 195.376 92.250 C 196.220 89.912, 196.819 88.021, 196.706 88.048 C 196.593 88.074, 191.666 91.846, 185.757 96.431" stroke="none" fill="#f9e037" fill-rule="evenodd"/><path d="M 285 10.313 C 274.983 15.261, 274.422 15.707, 272.804 20 C 271.475 23.528, 271.097 28.009, 271.054 40.750 L 271 57 268.250 57.001 C 266.738 57.001, 262.688 58.332, 259.250 59.958 L 253 62.915 253 57.007 C 253 47.043, 251.359 42.207, 244.687 32.500 L 238.500 23.500 230.356 23.211 L 222.213 22.923 207.986 30.800 C 200.162 35.133, 193.297 39.505, 192.731 40.516 C 192.166 41.527, 191.510 46.436, 191.274 51.427 C 190.908 59.183, 191.145 61.071, 192.908 64.432 C 194.042 66.594, 194.864 68.460, 194.735 68.579 C 194.606 68.697, 189.067 68.953, 182.426 69.147 L 170.353 69.500 169.184 49.790 C 167.997 29.761, 166.625 23.075, 163.107 20.176 C 161.984 19.250, 159.241 18.968, 154 19.239 C 147.683 19.565, 144.529 20.461, 134 24.920 C 127.125 27.832, 120.983 30.729, 120.352 31.357 C 118.736 32.966, 116 45.912, 116 51.947 L 116 57 108.137 57 L 100.274 57 99.766 50.673 C 99.114 42.557, 96.798 37.732, 90.536 31.445 C 83.406 24.287, 80.578 23.682, 56.830 24.235 C 38.090 24.671, 37.118 24.797, 25 28.386 C 18.125 30.421, 10.925 32.855, 9 33.793 L 5.500 35.500 5.608 47 C 5.707 57.632, 5.984 59.202, 9.270 67.791 C 13.755 79.517, 15.111 81.552, 19.378 82.960 C 23.189 84.218, 23.012 83.803, 36.702 123.500 C 39.736 132.300, 42.845 140.717, 43.611 142.203 C 45.319 145.519, 49.391 146.722, 57.489 146.301 C 62.254 146.053, 64.634 145.276, 69.139 142.495 C 75.504 138.566, 76.637 138.357, 79.742 140.532 C 84.467 143.841, 90.284 145.025, 102.411 145.145 C 112.217 145.242, 115.628 144.877, 120.474 143.212 C 123.760 142.083, 126.738 141.338, 127.092 141.557 C 127.447 141.776, 128.040 144.639, 128.411 147.920 C 129.597 158.401, 129.565 158.386, 151.764 158.447 C 172.811 158.506, 174.121 158.145, 175.360 151.949 C 175.685 150.327, 176.487 149, 177.143 149 C 177.800 149, 181.507 151.313, 185.382 154.140 C 194.147 160.536, 197.601 162, 203.921 162 C 212.726 162, 216 159.022, 216 151.012 C 216 148.870, 216.338 146.912, 216.750 146.659 C 217.162 146.407, 222 145.904, 227.500 145.540 C 233 145.177, 239.075 144.470, 241 143.970 C 247.485 142.285, 249.429 142.302, 254.511 144.088 C 260.030 146.028, 279.083 146.604, 321.708 146.120 C 342.484 145.884, 342.981 145.926, 346.042 148.189 C 349.064 150.424, 349.832 150.500, 369.334 150.500 C 386.492 150.500, 389.849 150.253, 391.837 148.845 C 394.029 147.293, 394.451 147.312, 398.618 149.155 C 402.621 150.926, 404.937 151.090, 422.005 150.810 C 445.631 150.423, 445.319 150.603, 445.844 137.130 L 446.187 128.313 437.094 116.233 C 432.092 109.589, 428 103.757, 428 103.274 C 428 102.791, 432.266 96.876, 437.480 90.131 C 443.173 82.764, 447.383 76.292, 448.020 73.926 C 448.603 71.760, 448.950 66.277, 448.790 61.743 L 448.500 53.500 434 53.187 C 426.025 53.015, 415.777 53.168, 411.226 53.529 C 403.363 54.151, 402.780 54.365, 399.467 57.842 L 395.981 61.500 392.633 57.549 L 389.285 53.598 366.913 53.549 L 344.541 53.500 343.219 56.244 C 341.699 59.399, 340.577 59.726, 329 60.388 C 324.325 60.655, 319.600 61.015, 318.500 61.187 C 316.553 61.492, 316.487 60.799, 316 34.903 C 315.615 14.411, 315.185 7.927, 314.128 6.653 C 313.037 5.339, 310.985 5.013, 304.128 5.063 C 295.805 5.124, 295.129 5.310, 285 10.313 M 294 18.993 L 283.500 23.658 283.231 44.691 L 282.961 65.724 277.436 66.294 C 269.626 67.101, 263.524 70.394, 255.837 77.950 C 250.438 83.258, 248.874 85.530, 247.587 89.932 C 246.714 92.919, 245.993 96.744, 245.985 98.432 C 245.973 100.816, 245.746 101.166, 244.966 100 C 244.088 98.687, 243.838 98.712, 242.962 100.197 C 239.412 106.211, 230.324 112.680, 226.623 111.828 C 225.718 111.620, 230.452 105.297, 239.595 94.500 L 253.992 77.500 251.246 75.233 C 247.552 72.184, 236.970 68.994, 230.645 69.024 C 220.976 69.070, 209.686 73.115, 203.916 78.600 L 201.331 81.057 191.721 79.510 L 182.110 77.964 171.305 83.941 L 160.500 89.918 159.804 87.209 C 159.421 85.719, 158.366 72.125, 157.461 57 C 156.555 41.875, 155.652 29.334, 155.454 29.130 C 155.256 28.927, 149.050 31.320, 141.664 34.449 L 128.234 40.137 127.569 44.319 C 127.203 46.618, 126.649 49.526, 126.336 50.780 C 125.799 52.937, 125.982 53.026, 129.727 52.428 L 133.686 51.795 134.343 61.051 C 134.704 66.142, 134.998 72.601, 134.996 75.404 L 134.993 80.500 133.139 77.500 C 128.811 70.492, 120.769 66.628, 110.423 66.585 C 104.428 66.560, 102.338 67.051, 96.764 69.795 C 88.075 74.073, 79.675 82.986, 77.532 90.204 C 74.436 100.630, 76.839 114.751, 82.969 122.160 C 91.296 132.224, 107.426 132.995, 120.561 123.958 C 125.913 120.276, 133.676 110.751, 134.543 106.802 C 136.006 100.144, 136.803 104.251, 137.447 121.766 C 137.825 132.070, 138.360 141.287, 138.635 142.250 C 139.077 143.797, 140.588 144, 151.658 144 L 164.181 144 163.449 130.760 C 162.828 119.525, 162.928 117.682, 164.108 118.592 C 168.515 121.988, 203.759 147, 204.138 147 C 204.388 147, 204.407 142.753, 204.180 137.563 L 203.767 128.126 208.633 129.645 C 212.171 130.749, 215.958 131.015, 222.500 130.621 C 232.629 130.009, 238.779 128.353, 246.546 124.146 L 251.865 121.265 255.107 124.610 C 259.422 129.063, 266.636 131.409, 273.888 130.719 C 276.975 130.426, 280.288 129.871, 281.250 129.486 C 282.516 128.980, 283 129.269, 283 130.532 C 283 132.052, 283.680 132.197, 288.250 131.648 C 291.137 131.301, 296.538 131.013, 300.250 131.009 L 307 131 307 127.530 L 307 124.060 310.489 126.428 C 315.689 129.957, 323.021 131.373, 332.407 130.661 C 345.645 129.657, 357.079 125.091, 362.870 118.495 L 366.060 114.862 362.280 110.118 C 353.415 98.995, 352.871 98.479, 351.879 100.251 C 348.637 106.045, 339.321 112.679, 335.623 111.828 C 334.718 111.620, 339.452 105.297, 348.595 94.500 L 362.992 77.500 360.246 75.233 C 356.552 72.184, 345.970 68.994, 339.645 69.024 C 328.710 69.076, 317.447 73.622, 311.046 80.566 C 307.458 84.459, 307.130 84.611, 306.600 82.634 C 306.285 81.460, 305.977 69.250, 305.914 55.500 C 305.852 41.750, 305.509 26.862, 305.151 22.415 L 304.500 14.329 294 18.993 M 44 34.935 C 30.132 38.021, 14.454 43.477, 14.807 45.094 C 15.200 46.897, 22.207 66.363, 22.664 66.921 C 22.853 67.152, 24.129 66.288, 25.500 65 C 26.871 63.712, 28.199 62.866, 28.452 63.119 C 28.706 63.372, 33.840 77.737, 39.863 95.040 C 45.885 112.343, 51.308 127.774, 51.912 129.331 L 53.012 132.162 58.256 128.417 C 67.756 121.633, 67.427 123.709, 61.971 105 L 57.159 88.500 62.685 83.550 C 69.928 77.061, 81.446 63.026, 84.543 56.915 C 85.894 54.248, 87 50.769, 87 49.183 C 87 45.179, 81.878 38.498, 76.763 35.831 C 70.787 32.715, 55.814 32.305, 44 34.935 M 216.164 39.914 C 209.379 43.686, 203.367 47.233, 202.804 47.796 C 202.105 48.495, 202.755 50.237, 204.847 53.277 L 207.913 57.734 220.207 55.365 C 226.968 54.061, 234.463 52.659, 236.862 52.248 C 239.261 51.836, 241.286 51.135, 241.362 50.689 C 241.585 49.377, 230.595 33.027, 229.500 33.041 C 228.950 33.049, 222.949 36.141, 216.164 39.914 M 53.203 56.131 C 51.390 56.654, 49.663 57.714, 49.366 58.487 C 48.917 59.658, 50.575 67.092, 52.593 72.954 C 52.948 73.986, 54.233 73.114, 57.013 69.954 C 63.280 62.832, 66.279 58.170, 65.649 56.527 C 64.978 54.779, 58.597 54.576, 53.203 56.131 M 353 62.328 C 353 62.671, 359.525 71.398, 367.500 81.723 C 375.475 92.047, 382 100.779, 382 101.127 C 382 101.610, 362.927 127.010, 356.752 134.750 C 355.964 135.738, 358.667 136, 369.640 136 L 383.524 136 389.512 128.018 C 392.805 123.628, 395.817 120.028, 396.205 120.018 C 396.593 120.008, 399.651 123.600, 403 128 L 409.090 136 422.545 136 C 429.945 136, 436 135.744, 436 135.430 C 436 135.117, 433.075 131.067, 429.500 126.430 C 425.925 121.794, 420.080 114.213, 416.511 109.584 L 410.022 101.167 424.940 81.845 C 433.144 71.218, 439.730 62.396, 439.574 62.241 C 439.418 62.085, 432.880 62.264, 425.045 62.638 L 410.799 63.318 403.778 72.659 C 399.916 77.796, 396.474 81.986, 396.128 81.968 C 395.783 81.951, 392.369 77.676, 388.543 72.468 L 381.585 63 375.543 62.994 C 372.219 62.991, 365.788 62.699, 361.250 62.346 C 356.712 61.993, 353 61.984, 353 62.328 M 107.970 78.250 C 99.737 82.409, 96.205 92.106, 101.250 96.701 C 109.280 104.015, 118.625 101.786, 122.503 91.630 C 123.409 89.258, 124.003 85.784, 123.823 83.909 L 123.495 80.500 121.731 83.733 C 119.810 87.252, 114.675 90.473, 112.386 89.595 C 108.571 88.131, 109.172 80.394, 113.326 77.484 C 116.676 75.138, 113.126 75.645, 107.970 78.250 M 276.241 78.995 C 269.898 82.862, 267.004 91.706, 270.465 96.647 C 272.168 99.078, 277.864 102, 280.901 102 C 282.779 102, 283 101.420, 283 96.500 C 283 92.333, 282.515 90.515, 281 89 C 278.607 86.607, 278.412 82.285, 280.557 79.223 C 282.578 76.337, 280.757 76.241, 276.241 78.995 M 216.933 87.266 C 212.502 90.253, 210.539 95.454, 211.485 101.708 L 212.209 106.500 215.854 102.393 C 217.859 100.134, 221.631 95.567, 224.236 92.244 C 228.038 87.396, 228.663 86.085, 227.405 85.602 C 224.280 84.403, 220.226 85.047, 216.933 87.266 M 325.933 87.266 C 321.502 90.253, 319.539 95.454, 320.485 101.708 L 321.209 106.500 324.854 102.393 C 326.859 100.134, 330.631 95.567, 333.236 92.244 C 337.038 87.396, 337.663 86.085, 336.405 85.602 C 333.280 84.403, 329.226 85.047, 325.933 87.266 M 185.757 96.431 L 175.013 104.766 184.257 111.690 C 196.515 120.873, 195.999 120.665, 194.273 115.733 C 192.492 110.647, 193.055 98.676, 195.376 92.250 C 196.220 89.912, 196.819 88.021, 196.706 88.048 C 196.593 88.074, 191.666 91.846, 185.757 96.431" stroke="none" fill="#3c49ba" fill-rule="evenodd"/></svg>